<svg xmlns="http://www.w3.org/2000/svg" viewBox="0 0 490.323 490.323" xmlns:v="https://vecta.io/nano"><path d="M323.886 0H166.438c-28.45 0-51.595 23.146-51.595 51.596v387.131c0 28.45 23.146 51.596 51.595 51.596h157.447c28.45 0 51.595-23.145 51.595-51.596V51.596C375.481 23.146 352.335 0 323.886 0zm35.952 438.726c.001 19.826-16.128 35.955-35.952 35.955H166.438c-19.825 0-35.954-16.129-35.954-35.954V199.389h229.354v239.337zm.001-254.978H130.485V51.596c0-19.825 16.129-35.954 35.953-35.954h157.447c19.825 0 35.954 16.129 35.954 35.954v132.152zm-206.715 38.445h15.642v53.593h-15.642zm0-114.842h15.642v53.593h-15.642z"/></svg>