<svg xmlns="http://www.w3.org/2000/svg" viewBox="0 0 493.559 493.559" xmlns:v="https://vecta.io/nano"><path d="M323.898 200.508c-12.757 0-23.136 10.379-23.136 23.136 0 10.053 6.448 18.625 15.424 21.809v24.462h-46.271V131.102h61.694V91.215c8.976-3.184 15.424-11.756 15.424-21.809 0-12.757-10.379-23.135-23.136-23.135s-23.136 10.378-23.136 23.135c0 10.053 6.448 18.625 15.424 21.809v24.462h-46.271V23.136C269.915 10.379 259.536 0 246.779 0s-23.136 10.379-23.136 23.136v169.66h-46.271v-24.461c8.976-3.184 15.424-11.756 15.424-21.809 0-12.757-10.379-23.136-23.136-23.136s-23.135 10.379-23.135 23.136c0 10.053 6.448 18.625 15.423 21.809v39.885h61.695v239.067h-38.559c-12.757 0-23.136 10.379-23.136 23.136s10.379 23.136 23.136 23.136h123.389c12.757 0 23.136-10.379 23.136-23.136s-10.379-23.136-23.136-23.136h-38.559V285.339h61.694v-39.886c8.976-3.184 15.424-11.756 15.424-21.809.001-12.757-10.378-23.136-23.134-23.136zm0-138.813c4.252 0 7.712 3.459 7.712 7.711s-3.46 7.712-7.712 7.712-7.712-3.46-7.712-7.712 3.46-7.711 7.712-7.711zm-154.237 92.543c-4.252 0-7.711-3.46-7.711-7.712a7.72 7.72 0 0 1 7.711-7.712c4.253 0 7.712 3.46 7.712 7.712s-3.46 7.712-7.712 7.712zm69.406-131.102c0-4.252 3.46-7.712 7.712-7.712s7.712 3.46 7.712 7.712v424.151h-15.424V23.136zm69.406 439.575c4.253 0 7.713 3.46 7.713 7.712s-3.46 7.712-7.712 7.712h-123.39c-4.253 0-7.712-3.46-7.712-7.712s3.459-7.712 7.712-7.712h123.389zm15.425-231.356c-4.252 0-7.712-3.46-7.712-7.712s3.46-7.712 7.712-7.712 7.712 3.46 7.712 7.712-3.461 7.712-7.712 7.712z"/></svg>