<svg xmlns="http://www.w3.org/2000/svg" viewBox="0 0 490.604 490.604" xmlns:v="https://vecta.io/nano"><path d="M0 95.821v68.991h15.331v229.97h15.332v-229.97H283.63v171.126c0 12.184 6.115 22.962 15.433 29.442v29.401h15.332v-23.363c1.661.237 3.357.367 5.083.367h119.425c1.942 0 3.847-.157 5.707-.451v23.447h15.332v-29.727c9.268-6.598 15.331-17.421 15.331-29.639V164.814h15.331V95.821H0zm459.94 239.596c0 11.6-9.438 21.038-21.038 21.038H319.478c-11.313 0-20.516-9.203-20.516-20.516V241.47H459.94v93.947zm0-109.278H298.962v-61.325H459.94v61.325zm15.331-76.659H283.63 15.332v-38.327h459.939v38.327zM360.287 256.801h38.328v15.332h-38.328z"/><path d="M360.287 180.145h38.328v15.332h-38.328z"/></svg>