<svg xmlns="http://www.w3.org/2000/svg" viewBox="0 0 492.501 492.501" xmlns:v="https://vecta.io/nano"><path d="M246.251 446.328c80.621 0 146.211-65.59 146.211-146.211s-65.59-146.211-146.211-146.211-146.211 65.59-146.211 146.211 65.59 146.211 146.211 146.211zm0-277.031c72.135 0 130.82 58.686 130.82 130.82s-58.685 130.82-130.82 130.82-130.82-58.685-130.82-130.82 58.685-130.82 130.82-130.82zm0 242.402c61.526 0 111.582-50.055 111.582-111.582s-50.055-111.582-111.582-111.582-111.582 50.056-111.582 111.582 50.055 111.582 111.582 111.582zm0-207.773c53.04 0 96.191 43.151 96.191 96.191s-43.151 96.191-96.191 96.191-96.191-43.151-96.191-96.191 43.151-96.191 96.191-96.191zM402.07 0H90.431c-20.16 0-36.563 16.402-36.563 36.564v419.373c0 20.161 16.402 36.564 36.563 36.564H402.07c20.161 0 36.563-16.402 36.563-36.564V36.564C438.634 16.402 422.232 0 402.07 0zm21.173 455.936c0 11.675-9.498 21.173-21.173 21.173H90.431c-11.675 0-21.172-9.498-21.172-21.173V123.125h353.984v332.811zm0-348.201H69.259V36.564c0-11.675 9.498-21.173 21.172-21.173H402.07c11.675 0 21.173 9.498 21.173 21.173v71.171zM115.431 30.781c-16.972 0-30.781 13.809-30.781 30.782s13.808 30.781 30.781 30.781c14.316 0 26.38-9.825 29.807-23.085h16.364V53.868h-16.364c-3.425-13.262-15.49-23.087-29.807-23.087zm0 46.172c-8.486 0-15.39-6.904-15.39-15.39s6.903-15.391 15.39-15.391 15.39 6.904 15.39 15.391a15.41 15.41 0 0 1-15.39 15.39zm53.867-23.085h15.391v15.391h-15.391zm0-23.087h15.391v15.391h-15.391zm0 46.172h15.391v15.391h-15.391zm146.211 15.391h92.344V30.781h-92.344v61.563zm15.39-46.172h61.562v30.781h-61.562V46.172zm-40.726 213.212l-76.952 76.952-10.882-10.882 76.952-76.952zm-72.451-10.886l10.882 10.882-23.086 23.086-10.882-10.882zm49.358 95.536l-10.882-10.882 23.085-23.085 10.882 10.882z"/></svg>