<svg xmlns="http://www.w3.org/2000/svg" viewBox="0 0 489.994 489.994" xmlns:v="https://vecta.io/nano"><path d="M444.058 233.57v-82.247c0-49.667-40.407-90.073-90.073-90.073H136.01c-49.667 0-90.073 40.407-90.073 90.073v82.247C19.214 242.976 0 268.458 0 298.357v15.776c0 26.958 15.621 50.327 38.281 61.56v53.05h15.313V381.12a68.58 68.58 0 0 0 15.08 1.689H421.32a68.58 68.58 0 0 0 15.08-1.689v47.625h15.313v-53.05c22.66-11.233 38.281-34.602 38.281-61.56v-15.776c0-29.901-19.213-55.383-45.936-64.789zM61.25 151.323c0-41.224 33.537-74.762 74.76-74.762h217.974c41.224 0 74.761 33.538 74.761 74.761v60.829a61.85 61.85 0 0 0-30.625-18.804v-22.928c0-17.98-14.628-32.608-32.608-32.608h-72.594c-17.981 0-32.608 14.628-32.608 32.608v20.958h-30.624v-20.958c0-17.98-14.628-32.608-32.609-32.608h-72.594c-17.98 0-32.608 14.628-32.608 32.608v22.929a61.86 61.86 0 0 0-30.625 18.804v-60.829zm321.558 55.366c16.427 0 31.678 8.93 39.82 23.028l-1.308-.033H68.673c-.438 0-.871.025-1.308.033 8.143-14.097 23.396-23.028 39.822-23.028h275.621zm-275.621-15.312v-20.958a17.32 17.32 0 0 1 17.296-17.296h72.594a17.32 17.32 0 0 1 17.296 17.296v20.958H107.187zm275.621 0H275.622v-20.958a17.32 17.32 0 0 1 17.296-17.296h72.594a17.32 17.32 0 0 1 17.296 17.296v20.958zm38.513 176.118H68.673c-29.423 0-53.361-23.938-53.361-53.361v-15.776c0-29.424 23.938-53.361 53.361-53.361H421.32c29.424 0 53.361 23.938 53.361 53.361v15.776h.001c0 29.423-23.938 53.361-53.361 53.361zM53.593 329.214h382.808v15.313H53.593z"/></svg>