<svg xmlns="http://www.w3.org/2000/svg" viewBox="0 0 489.995 489.995" xmlns:v="https://vecta.io/nano"><path d="M84.218 157.344h15.313v14.526H84.218zm298.59 0h15.313v14.526h-15.313zm-84.218 0h15.313v14.526H298.59zm-122.498 0h15.313v14.526h-15.313zm290.757 134.292c13.601-5.878 23.145-19.421 23.145-35.155 0-15.665-9.463-29.155-22.969-35.075V129.97c0-27.338-22.241-49.58-49.58-49.58H286.921c-17.631 0-33.132 9.258-41.924 23.161-8.792-13.902-24.293-23.161-41.924-23.161H72.548c-27.338 0-49.58 22.242-49.58 49.58v91.437C9.463 227.326 0 240.816 0 256.481c0 15.734 9.544 29.276 23.145 35.155C9.429 298.586 0 312.816 0 329.215c0 23.219 18.89 42.109 42.109 42.109h3.828v38.281H61.25v-38.281h367.495v38.281h15.313v-38.281h3.828c23.219 0 42.109-18.89 42.109-42.109-.001-16.399-9.43-30.629-23.146-37.579zm7.833-35.155c0 12.665-10.304 22.968-22.969 22.968s-22.968-10.304-22.968-22.968 10.304-22.968 22.968-22.968 22.969 10.304 22.969 22.968zm-45.911 30.625h-3.262c.32-.637.613-1.287.882-1.951.768.679 1.559 1.334 2.38 1.951zm-176.116-26.611V129.97c-.002-18.896 15.37-34.268 34.266-34.268h130.524c18.896 0 34.268 15.372 34.268 34.268v88.231c-11.05 0-21.015 4.712-28.009 12.225-4.852-7.136-13.036-11.832-22.296-11.832h-67.823c-14.857 0-26.945 12.087-26.945 26.944v29.543c0 4.32 1.028 8.403 2.843 12.025h-56.828v-26.611zm161.17 1.421v13.164c0 5.796-3.996 10.663-9.374 12.025H330.54c-5.378-1.362-9.374-6.229-9.374-12.024v-29.543c0-6.847 5.57-12.418 12.418-12.418h67.823c6.848 0 12.418 5.571 12.418 12.418v5.508c-.254 1.777-.393 3.59-.393 5.435s.139 3.659.393 5.435zM38.281 129.97c0-18.896 15.372-34.268 34.267-34.268h130.525c18.895 0 34.268 15.372 34.268 34.268v130.525 26.611H61.223c9.307-6.99 15.339-18.116 15.339-30.625 0-21.108-17.173-38.281-38.281-38.281v-88.23zM15.313 256.481c0-12.664 10.304-22.968 22.969-22.968s22.968 10.304 22.968 22.968-10.304 22.968-22.968 22.968-22.969-10.303-22.969-22.968zm432.572 99.53H42.109c-14.776 0-26.797-12.021-26.797-26.796s12.021-26.796 26.797-26.796h405.775c14.776 0 26.797 12.021 26.797 26.796s-12.02 26.796-26.796 26.796z"/></svg>